<svg width="84" height="53" viewBox="0 0 84 53" fill="none" xmlns="http://www.w3.org/2000/svg">
<ellipse cx="6" cy="6.5" rx="6" ry="6.5" fill="white"/>
<ellipse cx="24" cy="6.5" rx="6" ry="6.5" fill="white"/>
<ellipse cx="42" cy="6.5" rx="6" ry="6.5" fill="white"/>
<ellipse cx="60" cy="6.5" rx="6" ry="6.5" fill="white"/>
<ellipse cx="78" cy="6.5" rx="6" ry="6.5" fill="white"/>
<ellipse cx="6" cy="26.5" rx="6" ry="6.5" fill="white"/>
<ellipse cx="24" cy="26.5" rx="6" ry="6.5" fill="white"/>
<ellipse cx="42" cy="26.5" rx="6" ry="6.5" fill="white"/>
<ellipse cx="60" cy="26.5" rx="6" ry="6.5" fill="white"/>
<ellipse cx="78" cy="26.5" rx="6" ry="6.5" fill="white"/>
<ellipse cx="6" cy="46.5" rx="6" ry="6.5" fill="white"/>
<ellipse cx="24" cy="46.5" rx="6" ry="6.5" fill="white"/>
<ellipse cx="42" cy="46.5" rx="6" ry="6.5" fill="white"/>
<ellipse cx="60" cy="46.5" rx="6" ry="6.5" fill="white"/>
<ellipse cx="78" cy="46.5" rx="6" ry="6.5" fill="white"/>
</svg>
